<mxfile host="app.diagrams.net" modified="2022-11-15T08:40:34.296Z" agent="5.0 (Windows NT 10.0; Win64; x64) AppleWebKit/537.36 (KHTML, like Gecko) Chrome/107.0.0.0 Safari/537.36" etag="QpDXkO3BrasJrOi16zQk" version="20.5.3" type="github">
  <diagram name="Page-1" id="9f46799a-70d6-7492-0946-bef42562c5a5">
    <mxGraphModel dx="1110" dy="1074" grid="1" gridSize="10" guides="1" tooltips="1" connect="1" arrows="1" fold="1" page="1" pageScale="1" pageWidth="1100" pageHeight="850" background="none" math="0" shadow="0">
      <root>
        <mxCell id="0" />
        <mxCell id="1" parent="0" />
        <mxCell id="78961159f06e98e8-30" value="review" style="swimlane;html=1;fontStyle=1;align=center;verticalAlign=top;childLayout=stackLayout;horizontal=1;startSize=26;horizontalStack=0;resizeParent=1;resizeLast=0;collapsible=1;marginBottom=0;swimlaneFillColor=#ffffff;rounded=0;shadow=0;comic=0;labelBackgroundColor=none;strokeWidth=1;fillColor=none;fontFamily=Verdana;fontSize=12;" parent="1" vertex="1">
          <mxGeometry x="360" y="250" width="160" height="298" as="geometry" />
        </mxCell>
        <mxCell id="Coziq-dJK1Pich8Sk--5-6" value="" style="childLayout=tableLayout;recursiveResize=0;shadow=0;fillColor=none;rounded=0;" vertex="1" parent="78961159f06e98e8-30">
          <mxGeometry y="26" width="160" height="34" as="geometry" />
        </mxCell>
        <mxCell id="Coziq-dJK1Pich8Sk--5-19" style="edgeStyle=orthogonalEdgeStyle;rounded=0;orthogonalLoop=1;jettySize=auto;html=1;exitX=0.5;exitY=0;exitDx=0;exitDy=0;" edge="1" parent="Coziq-dJK1Pich8Sk--5-6" source="Coziq-dJK1Pich8Sk--5-11" target="Coziq-dJK1Pich8Sk--5-7">
          <mxGeometry relative="1" as="geometry" />
        </mxCell>
        <mxCell id="Coziq-dJK1Pich8Sk--5-7" value="" style="shape=tableRow;horizontal=0;startSize=0;swimlaneHead=0;swimlaneBody=0;top=0;left=0;bottom=0;right=0;dropTarget=0;collapsible=0;recursiveResize=0;expand=0;fontStyle=0;fillColor=none;strokeColor=inherit;rounded=0;" vertex="1" parent="Coziq-dJK1Pich8Sk--5-6">
          <mxGeometry width="160" height="34" as="geometry" />
        </mxCell>
        <mxCell id="Coziq-dJK1Pich8Sk--5-8" value="id" style="connectable=0;recursiveResize=0;strokeColor=inherit;fillColor=none;align=center;whiteSpace=wrap;html=1;rounded=0;" vertex="1" parent="Coziq-dJK1Pich8Sk--5-7">
          <mxGeometry width="80" height="34" as="geometry">
            <mxRectangle width="80" height="34" as="alternateBounds" />
          </mxGeometry>
        </mxCell>
        <mxCell id="Coziq-dJK1Pich8Sk--5-9" value="integer" style="connectable=0;recursiveResize=0;strokeColor=inherit;fillColor=none;align=center;whiteSpace=wrap;html=1;rounded=0;" vertex="1" parent="Coziq-dJK1Pich8Sk--5-7">
          <mxGeometry x="80" width="80" height="34" as="geometry">
            <mxRectangle width="80" height="34" as="alternateBounds" />
          </mxGeometry>
        </mxCell>
        <mxCell id="Coziq-dJK1Pich8Sk--5-20" value="" style="shape=table;html=1;whiteSpace=wrap;startSize=0;container=1;collapsible=0;childLayout=tableLayout;columnLines=0;rowLines=0;rounded=0;" vertex="1" parent="78961159f06e98e8-30">
          <mxGeometry y="60" width="160" height="238" as="geometry" />
        </mxCell>
        <mxCell id="Coziq-dJK1Pich8Sk--5-21" value="" style="shape=tableRow;horizontal=0;startSize=0;swimlaneHead=0;swimlaneBody=0;top=0;left=0;bottom=0;right=0;collapsible=0;dropTarget=0;fillColor=none;points=[[0,0.5],[1,0.5]];portConstraint=eastwest;rounded=0;" vertex="1" parent="Coziq-dJK1Pich8Sk--5-20">
          <mxGeometry width="160" height="34" as="geometry" />
        </mxCell>
        <mxCell id="Coziq-dJK1Pich8Sk--5-22" value="movie_id" style="shape=partialRectangle;html=1;whiteSpace=wrap;connectable=0;fillColor=none;top=0;left=0;bottom=0;right=0;overflow=hidden;fontSize=12;rounded=0;" vertex="1" parent="Coziq-dJK1Pich8Sk--5-21">
          <mxGeometry width="80" height="34" as="geometry">
            <mxRectangle width="80" height="34" as="alternateBounds" />
          </mxGeometry>
        </mxCell>
        <mxCell id="Coziq-dJK1Pich8Sk--5-23" value="integer" style="shape=partialRectangle;html=1;whiteSpace=wrap;connectable=0;fillColor=none;top=0;left=0;bottom=0;right=0;overflow=hidden;fontSize=12;rounded=0;" vertex="1" parent="Coziq-dJK1Pich8Sk--5-21">
          <mxGeometry x="80" width="80" height="34" as="geometry">
            <mxRectangle width="80" height="34" as="alternateBounds" />
          </mxGeometry>
        </mxCell>
        <mxCell id="Coziq-dJK1Pich8Sk--5-25" value="" style="shape=tableRow;horizontal=0;startSize=0;swimlaneHead=0;swimlaneBody=0;top=0;left=0;bottom=0;right=0;collapsible=0;dropTarget=0;fillColor=none;points=[[0,0.5],[1,0.5]];portConstraint=eastwest;rounded=0;" vertex="1" parent="Coziq-dJK1Pich8Sk--5-20">
          <mxGeometry y="34" width="160" height="34" as="geometry" />
        </mxCell>
        <mxCell id="Coziq-dJK1Pich8Sk--5-26" value="movie_title" style="shape=partialRectangle;html=1;whiteSpace=wrap;connectable=0;fillColor=none;top=0;left=0;bottom=0;right=0;overflow=hidden;fontSize=12;rounded=0;" vertex="1" parent="Coziq-dJK1Pich8Sk--5-25">
          <mxGeometry width="80" height="34" as="geometry">
            <mxRectangle width="80" height="34" as="alternateBounds" />
          </mxGeometry>
        </mxCell>
        <mxCell id="Coziq-dJK1Pich8Sk--5-27" value="varchar(50)" style="shape=partialRectangle;html=1;whiteSpace=wrap;connectable=0;fillColor=none;top=0;left=0;bottom=0;right=0;overflow=hidden;fontSize=12;rounded=0;" vertex="1" parent="Coziq-dJK1Pich8Sk--5-25">
          <mxGeometry x="80" width="80" height="34" as="geometry">
            <mxRectangle width="80" height="34" as="alternateBounds" />
          </mxGeometry>
        </mxCell>
        <mxCell id="Coziq-dJK1Pich8Sk--5-29" value="" style="shape=tableRow;horizontal=0;startSize=0;swimlaneHead=0;swimlaneBody=0;top=0;left=0;bottom=0;right=0;collapsible=0;dropTarget=0;fillColor=none;points=[[0,0.5],[1,0.5]];portConstraint=eastwest;rounded=0;" vertex="1" parent="Coziq-dJK1Pich8Sk--5-20">
          <mxGeometry y="68" width="160" height="34" as="geometry" />
        </mxCell>
        <mxCell id="Coziq-dJK1Pich8Sk--5-30" value="rank" style="shape=partialRectangle;html=1;whiteSpace=wrap;connectable=0;fillColor=none;top=0;left=0;bottom=0;right=0;overflow=hidden;fontSize=12;rounded=0;" vertex="1" parent="Coziq-dJK1Pich8Sk--5-29">
          <mxGeometry width="80" height="34" as="geometry">
            <mxRectangle width="80" height="34" as="alternateBounds" />
          </mxGeometry>
        </mxCell>
        <mxCell id="Coziq-dJK1Pich8Sk--5-31" value="integer" style="shape=partialRectangle;html=1;whiteSpace=wrap;connectable=0;fillColor=none;top=0;left=0;bottom=0;right=0;overflow=hidden;fontSize=12;rounded=0;" vertex="1" parent="Coziq-dJK1Pich8Sk--5-29">
          <mxGeometry x="80" width="80" height="34" as="geometry">
            <mxRectangle width="80" height="34" as="alternateBounds" />
          </mxGeometry>
        </mxCell>
        <mxCell id="Coziq-dJK1Pich8Sk--5-42" style="shape=tableRow;horizontal=0;startSize=0;swimlaneHead=0;swimlaneBody=0;top=0;left=0;bottom=0;right=0;collapsible=0;dropTarget=0;fillColor=none;points=[[0,0.5],[1,0.5]];portConstraint=eastwest;rounded=0;" vertex="1" parent="Coziq-dJK1Pich8Sk--5-20">
          <mxGeometry y="102" width="160" height="34" as="geometry" />
        </mxCell>
        <mxCell id="Coziq-dJK1Pich8Sk--5-43" value="content" style="shape=partialRectangle;html=1;whiteSpace=wrap;connectable=0;fillColor=none;top=0;left=0;bottom=0;right=0;overflow=hidden;fontSize=12;rounded=0;" vertex="1" parent="Coziq-dJK1Pich8Sk--5-42">
          <mxGeometry width="80" height="34" as="geometry">
            <mxRectangle width="80" height="34" as="alternateBounds" />
          </mxGeometry>
        </mxCell>
        <mxCell id="Coziq-dJK1Pich8Sk--5-44" value="text" style="shape=partialRectangle;html=1;whiteSpace=wrap;connectable=0;fillColor=none;top=0;left=0;bottom=0;right=0;overflow=hidden;fontSize=12;rounded=0;" vertex="1" parent="Coziq-dJK1Pich8Sk--5-42">
          <mxGeometry x="80" width="80" height="34" as="geometry">
            <mxRectangle width="80" height="34" as="alternateBounds" />
          </mxGeometry>
        </mxCell>
        <mxCell id="Coziq-dJK1Pich8Sk--5-39" style="shape=tableRow;horizontal=0;startSize=0;swimlaneHead=0;swimlaneBody=0;top=0;left=0;bottom=0;right=0;collapsible=0;dropTarget=0;fillColor=none;points=[[0,0.5],[1,0.5]];portConstraint=eastwest;rounded=0;" vertex="1" parent="Coziq-dJK1Pich8Sk--5-20">
          <mxGeometry y="136" width="160" height="34" as="geometry" />
        </mxCell>
        <mxCell id="Coziq-dJK1Pich8Sk--5-40" value="created_at" style="shape=partialRectangle;html=1;whiteSpace=wrap;connectable=0;fillColor=none;top=0;left=0;bottom=0;right=0;overflow=hidden;fontSize=12;rounded=0;" vertex="1" parent="Coziq-dJK1Pich8Sk--5-39">
          <mxGeometry width="80" height="34" as="geometry">
            <mxRectangle width="80" height="34" as="alternateBounds" />
          </mxGeometry>
        </mxCell>
        <mxCell id="Coziq-dJK1Pich8Sk--5-41" value="datatime" style="shape=partialRectangle;html=1;whiteSpace=wrap;connectable=0;fillColor=none;top=0;left=0;bottom=0;right=0;overflow=hidden;fontSize=12;rounded=0;" vertex="1" parent="Coziq-dJK1Pich8Sk--5-39">
          <mxGeometry x="80" width="80" height="34" as="geometry">
            <mxRectangle width="80" height="34" as="alternateBounds" />
          </mxGeometry>
        </mxCell>
        <mxCell id="Coziq-dJK1Pich8Sk--5-36" style="shape=tableRow;horizontal=0;startSize=0;swimlaneHead=0;swimlaneBody=0;top=0;left=0;bottom=0;right=0;collapsible=0;dropTarget=0;fillColor=none;points=[[0,0.5],[1,0.5]];portConstraint=eastwest;rounded=0;" vertex="1" parent="Coziq-dJK1Pich8Sk--5-20">
          <mxGeometry y="170" width="160" height="34" as="geometry" />
        </mxCell>
        <mxCell id="Coziq-dJK1Pich8Sk--5-37" value="updated_at" style="shape=partialRectangle;html=1;whiteSpace=wrap;connectable=0;fillColor=none;top=0;left=0;bottom=0;right=0;overflow=hidden;fontSize=12;rounded=0;" vertex="1" parent="Coziq-dJK1Pich8Sk--5-36">
          <mxGeometry width="80" height="34" as="geometry">
            <mxRectangle width="80" height="34" as="alternateBounds" />
          </mxGeometry>
        </mxCell>
        <mxCell id="Coziq-dJK1Pich8Sk--5-38" value="datatime" style="shape=partialRectangle;html=1;whiteSpace=wrap;connectable=0;fillColor=none;top=0;left=0;bottom=0;right=0;overflow=hidden;fontSize=12;rounded=0;" vertex="1" parent="Coziq-dJK1Pich8Sk--5-36">
          <mxGeometry x="80" width="80" height="34" as="geometry">
            <mxRectangle width="80" height="34" as="alternateBounds" />
          </mxGeometry>
        </mxCell>
        <mxCell id="Coziq-dJK1Pich8Sk--5-33" style="shape=tableRow;horizontal=0;startSize=0;swimlaneHead=0;swimlaneBody=0;top=0;left=0;bottom=0;right=0;collapsible=0;dropTarget=0;fillColor=none;points=[[0,0.5],[1,0.5]];portConstraint=eastwest;rounded=0;" vertex="1" parent="Coziq-dJK1Pich8Sk--5-20">
          <mxGeometry y="204" width="160" height="34" as="geometry" />
        </mxCell>
        <mxCell id="Coziq-dJK1Pich8Sk--5-34" value="user_id" style="shape=partialRectangle;html=1;whiteSpace=wrap;connectable=0;fillColor=none;top=0;left=0;bottom=0;right=0;overflow=hidden;fontSize=12;rounded=0;" vertex="1" parent="Coziq-dJK1Pich8Sk--5-33">
          <mxGeometry width="80" height="34" as="geometry">
            <mxRectangle width="80" height="34" as="alternateBounds" />
          </mxGeometry>
        </mxCell>
        <mxCell id="Coziq-dJK1Pich8Sk--5-35" value="integer" style="shape=partialRectangle;html=1;whiteSpace=wrap;connectable=0;fillColor=none;top=0;left=0;bottom=0;right=0;overflow=hidden;fontSize=12;rounded=0;" vertex="1" parent="Coziq-dJK1Pich8Sk--5-33">
          <mxGeometry x="80" width="80" height="34" as="geometry">
            <mxRectangle width="80" height="34" as="alternateBounds" />
          </mxGeometry>
        </mxCell>
        <mxCell id="Coziq-dJK1Pich8Sk--5-45" value="&lt;font style=&quot;font-size: 10px;&quot;&gt;accounts_user_followings&lt;/font&gt;" style="swimlane;html=1;fontStyle=1;align=center;verticalAlign=top;childLayout=stackLayout;horizontal=1;startSize=26;horizontalStack=0;resizeParent=1;resizeLast=0;collapsible=1;marginBottom=0;swimlaneFillColor=#ffffff;rounded=0;shadow=0;comic=0;labelBackgroundColor=none;strokeWidth=1;fillColor=none;fontFamily=Verdana;fontSize=12;" vertex="1" parent="1">
          <mxGeometry x="120" y="122" width="160" height="128" as="geometry" />
        </mxCell>
        <mxCell id="Coziq-dJK1Pich8Sk--5-46" value="" style="childLayout=tableLayout;recursiveResize=0;shadow=0;fillColor=none;rounded=0;" vertex="1" parent="Coziq-dJK1Pich8Sk--5-45">
          <mxGeometry y="26" width="160" height="34" as="geometry" />
        </mxCell>
        <mxCell id="Coziq-dJK1Pich8Sk--5-47" style="edgeStyle=orthogonalEdgeStyle;rounded=0;orthogonalLoop=1;jettySize=auto;html=1;exitX=0.5;exitY=0;exitDx=0;exitDy=0;" edge="1" parent="Coziq-dJK1Pich8Sk--5-46" target="Coziq-dJK1Pich8Sk--5-48">
          <mxGeometry relative="1" as="geometry" />
        </mxCell>
        <mxCell id="Coziq-dJK1Pich8Sk--5-48" value="" style="shape=tableRow;horizontal=0;startSize=0;swimlaneHead=0;swimlaneBody=0;top=0;left=0;bottom=0;right=0;dropTarget=0;collapsible=0;recursiveResize=0;expand=0;fontStyle=0;fillColor=none;strokeColor=inherit;rounded=0;" vertex="1" parent="Coziq-dJK1Pich8Sk--5-46">
          <mxGeometry width="160" height="34" as="geometry" />
        </mxCell>
        <mxCell id="Coziq-dJK1Pich8Sk--5-49" value="id" style="connectable=0;recursiveResize=0;strokeColor=inherit;fillColor=none;align=center;whiteSpace=wrap;html=1;rounded=0;" vertex="1" parent="Coziq-dJK1Pich8Sk--5-48">
          <mxGeometry width="80" height="34" as="geometry">
            <mxRectangle width="80" height="34" as="alternateBounds" />
          </mxGeometry>
        </mxCell>
        <mxCell id="Coziq-dJK1Pich8Sk--5-50" value="integer" style="connectable=0;recursiveResize=0;strokeColor=inherit;fillColor=none;align=center;whiteSpace=wrap;html=1;rounded=0;" vertex="1" parent="Coziq-dJK1Pich8Sk--5-48">
          <mxGeometry x="80" width="80" height="34" as="geometry">
            <mxRectangle width="80" height="34" as="alternateBounds" />
          </mxGeometry>
        </mxCell>
        <mxCell id="Coziq-dJK1Pich8Sk--5-51" value="" style="shape=table;html=1;whiteSpace=wrap;startSize=0;container=1;collapsible=0;childLayout=tableLayout;columnLines=0;rowLines=0;rounded=0;" vertex="1" parent="Coziq-dJK1Pich8Sk--5-45">
          <mxGeometry y="60" width="160" height="68" as="geometry" />
        </mxCell>
        <mxCell id="Coziq-dJK1Pich8Sk--5-52" value="" style="shape=tableRow;horizontal=0;startSize=0;swimlaneHead=0;swimlaneBody=0;top=0;left=0;bottom=0;right=0;collapsible=0;dropTarget=0;fillColor=none;points=[[0,0.5],[1,0.5]];portConstraint=eastwest;rounded=0;" vertex="1" parent="Coziq-dJK1Pich8Sk--5-51">
          <mxGeometry width="160" height="34" as="geometry" />
        </mxCell>
        <mxCell id="Coziq-dJK1Pich8Sk--5-53" value="from_user_id" style="shape=partialRectangle;html=1;whiteSpace=wrap;connectable=0;fillColor=none;top=0;left=0;bottom=0;right=0;overflow=hidden;fontSize=12;rounded=0;" vertex="1" parent="Coziq-dJK1Pich8Sk--5-52">
          <mxGeometry width="80" height="34" as="geometry">
            <mxRectangle width="80" height="34" as="alternateBounds" />
          </mxGeometry>
        </mxCell>
        <mxCell id="Coziq-dJK1Pich8Sk--5-54" value="integer" style="shape=partialRectangle;html=1;whiteSpace=wrap;connectable=0;fillColor=none;top=0;left=0;bottom=0;right=0;overflow=hidden;fontSize=12;rounded=0;" vertex="1" parent="Coziq-dJK1Pich8Sk--5-52">
          <mxGeometry x="80" width="80" height="34" as="geometry">
            <mxRectangle width="80" height="34" as="alternateBounds" />
          </mxGeometry>
        </mxCell>
        <mxCell id="Coziq-dJK1Pich8Sk--5-55" value="" style="shape=tableRow;horizontal=0;startSize=0;swimlaneHead=0;swimlaneBody=0;top=0;left=0;bottom=0;right=0;collapsible=0;dropTarget=0;fillColor=none;points=[[0,0.5],[1,0.5]];portConstraint=eastwest;rounded=0;" vertex="1" parent="Coziq-dJK1Pich8Sk--5-51">
          <mxGeometry y="34" width="160" height="34" as="geometry" />
        </mxCell>
        <mxCell id="Coziq-dJK1Pich8Sk--5-56" value="to_user_id" style="shape=partialRectangle;html=1;whiteSpace=wrap;connectable=0;fillColor=none;top=0;left=0;bottom=0;right=0;overflow=hidden;fontSize=12;rounded=0;" vertex="1" parent="Coziq-dJK1Pich8Sk--5-55">
          <mxGeometry width="80" height="34" as="geometry">
            <mxRectangle width="80" height="34" as="alternateBounds" />
          </mxGeometry>
        </mxCell>
        <mxCell id="Coziq-dJK1Pich8Sk--5-57" value="varchar(50)" style="shape=partialRectangle;html=1;whiteSpace=wrap;connectable=0;fillColor=none;top=0;left=0;bottom=0;right=0;overflow=hidden;fontSize=12;rounded=0;" vertex="1" parent="Coziq-dJK1Pich8Sk--5-55">
          <mxGeometry x="80" width="80" height="34" as="geometry">
            <mxRectangle width="80" height="34" as="alternateBounds" />
          </mxGeometry>
        </mxCell>
        <mxCell id="Coziq-dJK1Pich8Sk--5-73" value="accounts_user" style="swimlane;html=1;fontStyle=1;align=center;verticalAlign=top;childLayout=stackLayout;horizontal=1;startSize=26;horizontalStack=0;resizeParent=1;resizeLast=0;collapsible=1;marginBottom=0;swimlaneFillColor=#ffffff;rounded=0;shadow=0;comic=0;labelBackgroundColor=none;strokeWidth=1;fillColor=none;fontFamily=Verdana;fontSize=12;" vertex="1" parent="1">
          <mxGeometry x="120" y="360" width="160" height="400" as="geometry" />
        </mxCell>
        <mxCell id="Coziq-dJK1Pich8Sk--5-74" value="" style="childLayout=tableLayout;recursiveResize=0;shadow=0;fillColor=none;rounded=0;" vertex="1" parent="Coziq-dJK1Pich8Sk--5-73">
          <mxGeometry y="26" width="160" height="34" as="geometry" />
        </mxCell>
        <mxCell id="Coziq-dJK1Pich8Sk--5-75" style="edgeStyle=orthogonalEdgeStyle;rounded=0;orthogonalLoop=1;jettySize=auto;html=1;exitX=0.5;exitY=0;exitDx=0;exitDy=0;" edge="1" parent="Coziq-dJK1Pich8Sk--5-74" target="Coziq-dJK1Pich8Sk--5-76">
          <mxGeometry relative="1" as="geometry" />
        </mxCell>
        <mxCell id="Coziq-dJK1Pich8Sk--5-76" value="" style="shape=tableRow;horizontal=0;startSize=0;swimlaneHead=0;swimlaneBody=0;top=0;left=0;bottom=0;right=0;dropTarget=0;collapsible=0;recursiveResize=0;expand=0;fontStyle=0;fillColor=none;strokeColor=inherit;rounded=0;" vertex="1" parent="Coziq-dJK1Pich8Sk--5-74">
          <mxGeometry width="160" height="34" as="geometry" />
        </mxCell>
        <mxCell id="Coziq-dJK1Pich8Sk--5-77" value="id" style="connectable=0;recursiveResize=0;strokeColor=inherit;fillColor=none;align=center;whiteSpace=wrap;html=1;rounded=0;" vertex="1" parent="Coziq-dJK1Pich8Sk--5-76">
          <mxGeometry width="80" height="34" as="geometry">
            <mxRectangle width="80" height="34" as="alternateBounds" />
          </mxGeometry>
        </mxCell>
        <mxCell id="Coziq-dJK1Pich8Sk--5-78" value="integer" style="connectable=0;recursiveResize=0;strokeColor=inherit;fillColor=none;align=center;whiteSpace=wrap;html=1;rounded=0;" vertex="1" parent="Coziq-dJK1Pich8Sk--5-76">
          <mxGeometry x="80" width="80" height="34" as="geometry">
            <mxRectangle width="80" height="34" as="alternateBounds" />
          </mxGeometry>
        </mxCell>
        <mxCell id="Coziq-dJK1Pich8Sk--5-79" value="" style="shape=table;html=1;whiteSpace=wrap;startSize=0;container=1;collapsible=0;childLayout=tableLayout;columnLines=0;rowLines=0;rounded=0;" vertex="1" parent="Coziq-dJK1Pich8Sk--5-73">
          <mxGeometry y="60" width="160" height="340" as="geometry" />
        </mxCell>
        <mxCell id="Coziq-dJK1Pich8Sk--5-80" value="" style="shape=tableRow;horizontal=0;startSize=0;swimlaneHead=0;swimlaneBody=0;top=0;left=0;bottom=0;right=0;collapsible=0;dropTarget=0;fillColor=none;points=[[0,0.5],[1,0.5]];portConstraint=eastwest;rounded=0;" vertex="1" parent="Coziq-dJK1Pich8Sk--5-79">
          <mxGeometry width="160" height="34" as="geometry" />
        </mxCell>
        <mxCell id="Coziq-dJK1Pich8Sk--5-81" value="password" style="shape=partialRectangle;html=1;whiteSpace=wrap;connectable=0;fillColor=none;top=0;left=0;bottom=0;right=0;overflow=hidden;fontSize=12;rounded=0;" vertex="1" parent="Coziq-dJK1Pich8Sk--5-80">
          <mxGeometry width="80" height="34" as="geometry">
            <mxRectangle width="80" height="34" as="alternateBounds" />
          </mxGeometry>
        </mxCell>
        <mxCell id="Coziq-dJK1Pich8Sk--5-82" value="varchar(120)" style="shape=partialRectangle;html=1;whiteSpace=wrap;connectable=0;fillColor=none;top=0;left=0;bottom=0;right=0;overflow=hidden;fontSize=12;rounded=0;" vertex="1" parent="Coziq-dJK1Pich8Sk--5-80">
          <mxGeometry x="80" width="80" height="34" as="geometry">
            <mxRectangle width="80" height="34" as="alternateBounds" />
          </mxGeometry>
        </mxCell>
        <mxCell id="Coziq-dJK1Pich8Sk--5-83" value="" style="shape=tableRow;horizontal=0;startSize=0;swimlaneHead=0;swimlaneBody=0;top=0;left=0;bottom=0;right=0;collapsible=0;dropTarget=0;fillColor=none;points=[[0,0.5],[1,0.5]];portConstraint=eastwest;rounded=0;" vertex="1" parent="Coziq-dJK1Pich8Sk--5-79">
          <mxGeometry y="34" width="160" height="34" as="geometry" />
        </mxCell>
        <mxCell id="Coziq-dJK1Pich8Sk--5-84" value="username" style="shape=partialRectangle;html=1;whiteSpace=wrap;connectable=0;fillColor=none;top=0;left=0;bottom=0;right=0;overflow=hidden;fontSize=12;rounded=0;" vertex="1" parent="Coziq-dJK1Pich8Sk--5-83">
          <mxGeometry width="80" height="34" as="geometry">
            <mxRectangle width="80" height="34" as="alternateBounds" />
          </mxGeometry>
        </mxCell>
        <mxCell id="Coziq-dJK1Pich8Sk--5-85" value="varchar(150)" style="shape=partialRectangle;html=1;whiteSpace=wrap;connectable=0;fillColor=none;top=0;left=0;bottom=0;right=0;overflow=hidden;fontSize=12;rounded=0;" vertex="1" parent="Coziq-dJK1Pich8Sk--5-83">
          <mxGeometry x="80" width="80" height="34" as="geometry">
            <mxRectangle width="80" height="34" as="alternateBounds" />
          </mxGeometry>
        </mxCell>
        <mxCell id="Coziq-dJK1Pich8Sk--5-86" value="" style="shape=tableRow;horizontal=0;startSize=0;swimlaneHead=0;swimlaneBody=0;top=0;left=0;bottom=0;right=0;collapsible=0;dropTarget=0;fillColor=none;points=[[0,0.5],[1,0.5]];portConstraint=eastwest;rounded=0;" vertex="1" parent="Coziq-dJK1Pich8Sk--5-79">
          <mxGeometry y="68" width="160" height="34" as="geometry" />
        </mxCell>
        <mxCell id="Coziq-dJK1Pich8Sk--5-87" value="email" style="shape=partialRectangle;html=1;whiteSpace=wrap;connectable=0;fillColor=none;top=0;left=0;bottom=0;right=0;overflow=hidden;fontSize=12;rounded=0;" vertex="1" parent="Coziq-dJK1Pich8Sk--5-86">
          <mxGeometry width="80" height="34" as="geometry">
            <mxRectangle width="80" height="34" as="alternateBounds" />
          </mxGeometry>
        </mxCell>
        <mxCell id="Coziq-dJK1Pich8Sk--5-88" value="varchar(254)" style="shape=partialRectangle;html=1;whiteSpace=wrap;connectable=0;fillColor=none;top=0;left=0;bottom=0;right=0;overflow=hidden;fontSize=12;rounded=0;" vertex="1" parent="Coziq-dJK1Pich8Sk--5-86">
          <mxGeometry x="80" width="80" height="34" as="geometry">
            <mxRectangle width="80" height="34" as="alternateBounds" />
          </mxGeometry>
        </mxCell>
        <mxCell id="Coziq-dJK1Pich8Sk--5-89" style="shape=tableRow;horizontal=0;startSize=0;swimlaneHead=0;swimlaneBody=0;top=0;left=0;bottom=0;right=0;collapsible=0;dropTarget=0;fillColor=none;points=[[0,0.5],[1,0.5]];portConstraint=eastwest;rounded=0;" vertex="1" parent="Coziq-dJK1Pich8Sk--5-79">
          <mxGeometry y="102" width="160" height="34" as="geometry" />
        </mxCell>
        <mxCell id="Coziq-dJK1Pich8Sk--5-90" value="is_superuser" style="shape=partialRectangle;html=1;whiteSpace=wrap;connectable=0;fillColor=none;top=0;left=0;bottom=0;right=0;overflow=hidden;fontSize=12;rounded=0;" vertex="1" parent="Coziq-dJK1Pich8Sk--5-89">
          <mxGeometry width="80" height="34" as="geometry">
            <mxRectangle width="80" height="34" as="alternateBounds" />
          </mxGeometry>
        </mxCell>
        <mxCell id="Coziq-dJK1Pich8Sk--5-91" value="bool" style="shape=partialRectangle;html=1;whiteSpace=wrap;connectable=0;fillColor=none;top=0;left=0;bottom=0;right=0;overflow=hidden;fontSize=12;rounded=0;" vertex="1" parent="Coziq-dJK1Pich8Sk--5-89">
          <mxGeometry x="80" width="80" height="34" as="geometry">
            <mxRectangle width="80" height="34" as="alternateBounds" />
          </mxGeometry>
        </mxCell>
        <mxCell id="Coziq-dJK1Pich8Sk--5-185" style="shape=tableRow;horizontal=0;startSize=0;swimlaneHead=0;swimlaneBody=0;top=0;left=0;bottom=0;right=0;collapsible=0;dropTarget=0;fillColor=none;points=[[0,0.5],[1,0.5]];portConstraint=eastwest;rounded=0;" vertex="1" parent="Coziq-dJK1Pich8Sk--5-79">
          <mxGeometry y="136" width="160" height="34" as="geometry" />
        </mxCell>
        <mxCell id="Coziq-dJK1Pich8Sk--5-186" value="is_staff" style="shape=partialRectangle;html=1;whiteSpace=wrap;connectable=0;fillColor=none;top=0;left=0;bottom=0;right=0;overflow=hidden;fontSize=12;rounded=0;" vertex="1" parent="Coziq-dJK1Pich8Sk--5-185">
          <mxGeometry width="80" height="34" as="geometry">
            <mxRectangle width="80" height="34" as="alternateBounds" />
          </mxGeometry>
        </mxCell>
        <mxCell id="Coziq-dJK1Pich8Sk--5-187" value="bool" style="shape=partialRectangle;html=1;whiteSpace=wrap;connectable=0;fillColor=none;top=0;left=0;bottom=0;right=0;overflow=hidden;fontSize=12;rounded=0;" vertex="1" parent="Coziq-dJK1Pich8Sk--5-185">
          <mxGeometry x="80" width="80" height="34" as="geometry">
            <mxRectangle width="80" height="34" as="alternateBounds" />
          </mxGeometry>
        </mxCell>
        <mxCell id="Coziq-dJK1Pich8Sk--5-92" style="shape=tableRow;horizontal=0;startSize=0;swimlaneHead=0;swimlaneBody=0;top=0;left=0;bottom=0;right=0;collapsible=0;dropTarget=0;fillColor=none;points=[[0,0.5],[1,0.5]];portConstraint=eastwest;rounded=0;" vertex="1" parent="Coziq-dJK1Pich8Sk--5-79">
          <mxGeometry y="170" width="160" height="34" as="geometry" />
        </mxCell>
        <mxCell id="Coziq-dJK1Pich8Sk--5-93" value="is_active" style="shape=partialRectangle;html=1;whiteSpace=wrap;connectable=0;fillColor=none;top=0;left=0;bottom=0;right=0;overflow=hidden;fontSize=12;rounded=0;" vertex="1" parent="Coziq-dJK1Pich8Sk--5-92">
          <mxGeometry width="80" height="34" as="geometry">
            <mxRectangle width="80" height="34" as="alternateBounds" />
          </mxGeometry>
        </mxCell>
        <mxCell id="Coziq-dJK1Pich8Sk--5-94" value="bool" style="shape=partialRectangle;html=1;whiteSpace=wrap;connectable=0;fillColor=none;top=0;left=0;bottom=0;right=0;overflow=hidden;fontSize=12;rounded=0;" vertex="1" parent="Coziq-dJK1Pich8Sk--5-92">
          <mxGeometry x="80" width="80" height="34" as="geometry">
            <mxRectangle width="80" height="34" as="alternateBounds" />
          </mxGeometry>
        </mxCell>
        <mxCell id="Coziq-dJK1Pich8Sk--5-95" style="shape=tableRow;horizontal=0;startSize=0;swimlaneHead=0;swimlaneBody=0;top=0;left=0;bottom=0;right=0;collapsible=0;dropTarget=0;fillColor=none;points=[[0,0.5],[1,0.5]];portConstraint=eastwest;rounded=0;" vertex="1" parent="Coziq-dJK1Pich8Sk--5-79">
          <mxGeometry y="204" width="160" height="34" as="geometry" />
        </mxCell>
        <mxCell id="Coziq-dJK1Pich8Sk--5-96" value="last_name" style="shape=partialRectangle;html=1;whiteSpace=wrap;connectable=0;fillColor=none;top=0;left=0;bottom=0;right=0;overflow=hidden;fontSize=12;rounded=0;" vertex="1" parent="Coziq-dJK1Pich8Sk--5-95">
          <mxGeometry width="80" height="34" as="geometry">
            <mxRectangle width="80" height="34" as="alternateBounds" />
          </mxGeometry>
        </mxCell>
        <mxCell id="Coziq-dJK1Pich8Sk--5-97" value="varchar(150)" style="shape=partialRectangle;html=1;whiteSpace=wrap;connectable=0;fillColor=none;top=0;left=0;bottom=0;right=0;overflow=hidden;fontSize=12;rounded=0;" vertex="1" parent="Coziq-dJK1Pich8Sk--5-95">
          <mxGeometry x="80" width="80" height="34" as="geometry">
            <mxRectangle width="80" height="34" as="alternateBounds" />
          </mxGeometry>
        </mxCell>
        <mxCell id="Coziq-dJK1Pich8Sk--5-98" style="shape=tableRow;horizontal=0;startSize=0;swimlaneHead=0;swimlaneBody=0;top=0;left=0;bottom=0;right=0;collapsible=0;dropTarget=0;fillColor=none;points=[[0,0.5],[1,0.5]];portConstraint=eastwest;rounded=0;" vertex="1" parent="Coziq-dJK1Pich8Sk--5-79">
          <mxGeometry y="238" width="160" height="34" as="geometry" />
        </mxCell>
        <mxCell id="Coziq-dJK1Pich8Sk--5-99" value="first_name" style="shape=partialRectangle;html=1;whiteSpace=wrap;connectable=0;fillColor=none;top=0;left=0;bottom=0;right=0;overflow=hidden;fontSize=12;rounded=0;" vertex="1" parent="Coziq-dJK1Pich8Sk--5-98">
          <mxGeometry width="80" height="34" as="geometry">
            <mxRectangle width="80" height="34" as="alternateBounds" />
          </mxGeometry>
        </mxCell>
        <mxCell id="Coziq-dJK1Pich8Sk--5-100" value="&lt;span style=&quot;color: rgb(0, 0, 0); font-family: Helvetica; font-size: 12px; font-style: normal; font-variant-ligatures: normal; font-variant-caps: normal; font-weight: 400; letter-spacing: normal; orphans: 2; text-align: center; text-indent: 0px; text-transform: none; widows: 2; word-spacing: 0px; -webkit-text-stroke-width: 0px; background-color: rgb(248, 249, 250); text-decoration-thickness: initial; text-decoration-style: initial; text-decoration-color: initial; float: none; display: inline !important;&quot;&gt;varchar(150)&lt;/span&gt;" style="shape=partialRectangle;html=1;whiteSpace=wrap;connectable=0;fillColor=none;top=0;left=0;bottom=0;right=0;overflow=hidden;fontSize=12;rounded=0;" vertex="1" parent="Coziq-dJK1Pich8Sk--5-98">
          <mxGeometry x="80" width="80" height="34" as="geometry">
            <mxRectangle width="80" height="34" as="alternateBounds" />
          </mxGeometry>
        </mxCell>
        <mxCell id="Coziq-dJK1Pich8Sk--5-188" style="shape=tableRow;horizontal=0;startSize=0;swimlaneHead=0;swimlaneBody=0;top=0;left=0;bottom=0;right=0;collapsible=0;dropTarget=0;fillColor=none;points=[[0,0.5],[1,0.5]];portConstraint=eastwest;rounded=0;" vertex="1" parent="Coziq-dJK1Pich8Sk--5-79">
          <mxGeometry y="272" width="160" height="34" as="geometry" />
        </mxCell>
        <mxCell id="Coziq-dJK1Pich8Sk--5-189" value="date_joined" style="shape=partialRectangle;html=1;whiteSpace=wrap;connectable=0;fillColor=none;top=0;left=0;bottom=0;right=0;overflow=hidden;fontSize=12;rounded=0;" vertex="1" parent="Coziq-dJK1Pich8Sk--5-188">
          <mxGeometry width="80" height="34" as="geometry">
            <mxRectangle width="80" height="34" as="alternateBounds" />
          </mxGeometry>
        </mxCell>
        <mxCell id="Coziq-dJK1Pich8Sk--5-190" value="datetime" style="shape=partialRectangle;html=1;whiteSpace=wrap;connectable=0;fillColor=none;top=0;left=0;bottom=0;right=0;overflow=hidden;fontSize=12;rounded=0;" vertex="1" parent="Coziq-dJK1Pich8Sk--5-188">
          <mxGeometry x="80" width="80" height="34" as="geometry">
            <mxRectangle width="80" height="34" as="alternateBounds" />
          </mxGeometry>
        </mxCell>
        <mxCell id="Coziq-dJK1Pich8Sk--5-191" style="shape=tableRow;horizontal=0;startSize=0;swimlaneHead=0;swimlaneBody=0;top=0;left=0;bottom=0;right=0;collapsible=0;dropTarget=0;fillColor=none;points=[[0,0.5],[1,0.5]];portConstraint=eastwest;rounded=0;" vertex="1" parent="Coziq-dJK1Pich8Sk--5-79">
          <mxGeometry y="306" width="160" height="34" as="geometry" />
        </mxCell>
        <mxCell id="Coziq-dJK1Pich8Sk--5-192" value="last_login" style="shape=partialRectangle;html=1;whiteSpace=wrap;connectable=0;fillColor=none;top=0;left=0;bottom=0;right=0;overflow=hidden;fontSize=12;rounded=0;" vertex="1" parent="Coziq-dJK1Pich8Sk--5-191">
          <mxGeometry width="80" height="34" as="geometry">
            <mxRectangle width="80" height="34" as="alternateBounds" />
          </mxGeometry>
        </mxCell>
        <mxCell id="Coziq-dJK1Pich8Sk--5-193" value="datetime" style="shape=partialRectangle;html=1;whiteSpace=wrap;connectable=0;fillColor=none;top=0;left=0;bottom=0;right=0;overflow=hidden;fontSize=12;rounded=0;" vertex="1" parent="Coziq-dJK1Pich8Sk--5-191">
          <mxGeometry x="80" width="80" height="34" as="geometry">
            <mxRectangle width="80" height="34" as="alternateBounds" />
          </mxGeometry>
        </mxCell>
        <mxCell id="Coziq-dJK1Pich8Sk--5-101" value="movies_movie" style="swimlane;html=1;fontStyle=1;align=center;verticalAlign=top;childLayout=stackLayout;horizontal=1;startSize=26;horizontalStack=0;resizeParent=1;resizeLast=0;collapsible=1;marginBottom=0;swimlaneFillColor=#ffffff;rounded=0;shadow=0;comic=0;labelBackgroundColor=none;strokeWidth=1;fillColor=none;fontFamily=Verdana;fontSize=12;" vertex="1" parent="1">
          <mxGeometry x="640" y="267" width="160" height="264" as="geometry" />
        </mxCell>
        <mxCell id="Coziq-dJK1Pich8Sk--5-102" value="" style="childLayout=tableLayout;recursiveResize=0;shadow=0;fillColor=none;rounded=0;" vertex="1" parent="Coziq-dJK1Pich8Sk--5-101">
          <mxGeometry y="26" width="160" height="34" as="geometry" />
        </mxCell>
        <mxCell id="Coziq-dJK1Pich8Sk--5-103" style="edgeStyle=orthogonalEdgeStyle;rounded=0;orthogonalLoop=1;jettySize=auto;html=1;exitX=0.5;exitY=0;exitDx=0;exitDy=0;" edge="1" parent="Coziq-dJK1Pich8Sk--5-102" target="Coziq-dJK1Pich8Sk--5-104">
          <mxGeometry relative="1" as="geometry" />
        </mxCell>
        <mxCell id="Coziq-dJK1Pich8Sk--5-104" value="" style="shape=tableRow;horizontal=0;startSize=0;swimlaneHead=0;swimlaneBody=0;top=0;left=0;bottom=0;right=0;dropTarget=0;collapsible=0;recursiveResize=0;expand=0;fontStyle=0;fillColor=none;strokeColor=inherit;rounded=0;" vertex="1" parent="Coziq-dJK1Pich8Sk--5-102">
          <mxGeometry width="160" height="34" as="geometry" />
        </mxCell>
        <mxCell id="Coziq-dJK1Pich8Sk--5-105" value="id" style="connectable=0;recursiveResize=0;strokeColor=inherit;fillColor=none;align=center;whiteSpace=wrap;html=1;rounded=0;" vertex="1" parent="Coziq-dJK1Pich8Sk--5-104">
          <mxGeometry width="80" height="34" as="geometry">
            <mxRectangle width="80" height="34" as="alternateBounds" />
          </mxGeometry>
        </mxCell>
        <mxCell id="Coziq-dJK1Pich8Sk--5-106" value="integer" style="connectable=0;recursiveResize=0;strokeColor=inherit;fillColor=none;align=center;whiteSpace=wrap;html=1;rounded=0;" vertex="1" parent="Coziq-dJK1Pich8Sk--5-104">
          <mxGeometry x="80" width="80" height="34" as="geometry">
            <mxRectangle width="80" height="34" as="alternateBounds" />
          </mxGeometry>
        </mxCell>
        <mxCell id="Coziq-dJK1Pich8Sk--5-107" value="" style="shape=table;html=1;whiteSpace=wrap;startSize=0;container=1;collapsible=0;childLayout=tableLayout;columnLines=0;rowLines=0;rounded=0;" vertex="1" parent="Coziq-dJK1Pich8Sk--5-101">
          <mxGeometry y="60" width="160" height="204" as="geometry" />
        </mxCell>
        <mxCell id="Coziq-dJK1Pich8Sk--5-108" value="" style="shape=tableRow;horizontal=0;startSize=0;swimlaneHead=0;swimlaneBody=0;top=0;left=0;bottom=0;right=0;collapsible=0;dropTarget=0;fillColor=none;points=[[0,0.5],[1,0.5]];portConstraint=eastwest;rounded=0;" vertex="1" parent="Coziq-dJK1Pich8Sk--5-107">
          <mxGeometry width="160" height="34" as="geometry" />
        </mxCell>
        <mxCell id="Coziq-dJK1Pich8Sk--5-109" value="title" style="shape=partialRectangle;html=1;whiteSpace=wrap;connectable=0;fillColor=none;top=0;left=0;bottom=0;right=0;overflow=hidden;fontSize=12;rounded=0;" vertex="1" parent="Coziq-dJK1Pich8Sk--5-108">
          <mxGeometry width="80" height="34" as="geometry">
            <mxRectangle width="80" height="34" as="alternateBounds" />
          </mxGeometry>
        </mxCell>
        <mxCell id="Coziq-dJK1Pich8Sk--5-110" value="varchar(100)" style="shape=partialRectangle;html=1;whiteSpace=wrap;connectable=0;fillColor=none;top=0;left=0;bottom=0;right=0;overflow=hidden;fontSize=12;rounded=0;" vertex="1" parent="Coziq-dJK1Pich8Sk--5-108">
          <mxGeometry x="80" width="80" height="34" as="geometry">
            <mxRectangle width="80" height="34" as="alternateBounds" />
          </mxGeometry>
        </mxCell>
        <mxCell id="Coziq-dJK1Pich8Sk--5-111" value="" style="shape=tableRow;horizontal=0;startSize=0;swimlaneHead=0;swimlaneBody=0;top=0;left=0;bottom=0;right=0;collapsible=0;dropTarget=0;fillColor=none;points=[[0,0.5],[1,0.5]];portConstraint=eastwest;rounded=0;" vertex="1" parent="Coziq-dJK1Pich8Sk--5-107">
          <mxGeometry y="34" width="160" height="34" as="geometry" />
        </mxCell>
        <mxCell id="Coziq-dJK1Pich8Sk--5-112" value="release_date" style="shape=partialRectangle;html=1;whiteSpace=wrap;connectable=0;fillColor=none;top=0;left=0;bottom=0;right=0;overflow=hidden;fontSize=12;rounded=0;" vertex="1" parent="Coziq-dJK1Pich8Sk--5-111">
          <mxGeometry width="80" height="34" as="geometry">
            <mxRectangle width="80" height="34" as="alternateBounds" />
          </mxGeometry>
        </mxCell>
        <mxCell id="Coziq-dJK1Pich8Sk--5-113" value="date" style="shape=partialRectangle;html=1;whiteSpace=wrap;connectable=0;fillColor=none;top=0;left=0;bottom=0;right=0;overflow=hidden;fontSize=12;rounded=0;" vertex="1" parent="Coziq-dJK1Pich8Sk--5-111">
          <mxGeometry x="80" width="80" height="34" as="geometry">
            <mxRectangle width="80" height="34" as="alternateBounds" />
          </mxGeometry>
        </mxCell>
        <mxCell id="Coziq-dJK1Pich8Sk--5-114" value="" style="shape=tableRow;horizontal=0;startSize=0;swimlaneHead=0;swimlaneBody=0;top=0;left=0;bottom=0;right=0;collapsible=0;dropTarget=0;fillColor=none;points=[[0,0.5],[1,0.5]];portConstraint=eastwest;rounded=0;" vertex="1" parent="Coziq-dJK1Pich8Sk--5-107">
          <mxGeometry y="68" width="160" height="34" as="geometry" />
        </mxCell>
        <mxCell id="Coziq-dJK1Pich8Sk--5-115" value="popularity" style="shape=partialRectangle;html=1;whiteSpace=wrap;connectable=0;fillColor=none;top=0;left=0;bottom=0;right=0;overflow=hidden;fontSize=12;rounded=0;" vertex="1" parent="Coziq-dJK1Pich8Sk--5-114">
          <mxGeometry width="80" height="34" as="geometry">
            <mxRectangle width="80" height="34" as="alternateBounds" />
          </mxGeometry>
        </mxCell>
        <mxCell id="Coziq-dJK1Pich8Sk--5-116" value="real" style="shape=partialRectangle;html=1;whiteSpace=wrap;connectable=0;fillColor=none;top=0;left=0;bottom=0;right=0;overflow=hidden;fontSize=12;rounded=0;" vertex="1" parent="Coziq-dJK1Pich8Sk--5-114">
          <mxGeometry x="80" width="80" height="34" as="geometry">
            <mxRectangle width="80" height="34" as="alternateBounds" />
          </mxGeometry>
        </mxCell>
        <mxCell id="Coziq-dJK1Pich8Sk--5-120" style="shape=tableRow;horizontal=0;startSize=0;swimlaneHead=0;swimlaneBody=0;top=0;left=0;bottom=0;right=0;collapsible=0;dropTarget=0;fillColor=none;points=[[0,0.5],[1,0.5]];portConstraint=eastwest;rounded=0;" vertex="1" parent="Coziq-dJK1Pich8Sk--5-107">
          <mxGeometry y="102" width="160" height="34" as="geometry" />
        </mxCell>
        <mxCell id="Coziq-dJK1Pich8Sk--5-121" value="vote_average" style="shape=partialRectangle;html=1;whiteSpace=wrap;connectable=0;fillColor=none;top=0;left=0;bottom=0;right=0;overflow=hidden;fontSize=12;rounded=0;" vertex="1" parent="Coziq-dJK1Pich8Sk--5-120">
          <mxGeometry width="80" height="34" as="geometry">
            <mxRectangle width="80" height="34" as="alternateBounds" />
          </mxGeometry>
        </mxCell>
        <mxCell id="Coziq-dJK1Pich8Sk--5-122" value="real" style="shape=partialRectangle;html=1;whiteSpace=wrap;connectable=0;fillColor=none;top=0;left=0;bottom=0;right=0;overflow=hidden;fontSize=12;rounded=0;" vertex="1" parent="Coziq-dJK1Pich8Sk--5-120">
          <mxGeometry x="80" width="80" height="34" as="geometry">
            <mxRectangle width="80" height="34" as="alternateBounds" />
          </mxGeometry>
        </mxCell>
        <mxCell id="Coziq-dJK1Pich8Sk--5-123" style="shape=tableRow;horizontal=0;startSize=0;swimlaneHead=0;swimlaneBody=0;top=0;left=0;bottom=0;right=0;collapsible=0;dropTarget=0;fillColor=none;points=[[0,0.5],[1,0.5]];portConstraint=eastwest;rounded=0;" vertex="1" parent="Coziq-dJK1Pich8Sk--5-107">
          <mxGeometry y="136" width="160" height="34" as="geometry" />
        </mxCell>
        <mxCell id="Coziq-dJK1Pich8Sk--5-124" value="overview" style="shape=partialRectangle;html=1;whiteSpace=wrap;connectable=0;fillColor=none;top=0;left=0;bottom=0;right=0;overflow=hidden;fontSize=12;rounded=0;" vertex="1" parent="Coziq-dJK1Pich8Sk--5-123">
          <mxGeometry width="80" height="34" as="geometry">
            <mxRectangle width="80" height="34" as="alternateBounds" />
          </mxGeometry>
        </mxCell>
        <mxCell id="Coziq-dJK1Pich8Sk--5-125" value="text" style="shape=partialRectangle;html=1;whiteSpace=wrap;connectable=0;fillColor=none;top=0;left=0;bottom=0;right=0;overflow=hidden;fontSize=12;rounded=0;" vertex="1" parent="Coziq-dJK1Pich8Sk--5-123">
          <mxGeometry x="80" width="80" height="34" as="geometry">
            <mxRectangle width="80" height="34" as="alternateBounds" />
          </mxGeometry>
        </mxCell>
        <mxCell id="Coziq-dJK1Pich8Sk--5-126" style="shape=tableRow;horizontal=0;startSize=0;swimlaneHead=0;swimlaneBody=0;top=0;left=0;bottom=0;right=0;collapsible=0;dropTarget=0;fillColor=none;points=[[0,0.5],[1,0.5]];portConstraint=eastwest;rounded=0;" vertex="1" parent="Coziq-dJK1Pich8Sk--5-107">
          <mxGeometry y="170" width="160" height="34" as="geometry" />
        </mxCell>
        <mxCell id="Coziq-dJK1Pich8Sk--5-127" value="poster_path" style="shape=partialRectangle;html=1;whiteSpace=wrap;connectable=0;fillColor=none;top=0;left=0;bottom=0;right=0;overflow=hidden;fontSize=12;rounded=0;" vertex="1" parent="Coziq-dJK1Pich8Sk--5-126">
          <mxGeometry width="80" height="34" as="geometry">
            <mxRectangle width="80" height="34" as="alternateBounds" />
          </mxGeometry>
        </mxCell>
        <mxCell id="Coziq-dJK1Pich8Sk--5-128" value="varchar(200)" style="shape=partialRectangle;html=1;whiteSpace=wrap;connectable=0;fillColor=none;top=0;left=0;bottom=0;right=0;overflow=hidden;fontSize=12;rounded=0;" vertex="1" parent="Coziq-dJK1Pich8Sk--5-126">
          <mxGeometry x="80" width="80" height="34" as="geometry">
            <mxRectangle width="80" height="34" as="alternateBounds" />
          </mxGeometry>
        </mxCell>
        <mxCell id="Coziq-dJK1Pich8Sk--5-194" value="&lt;font style=&quot;font-size: 12px;&quot;&gt;movies_genre&lt;/font&gt;" style="swimlane;html=1;fontStyle=1;align=center;verticalAlign=top;childLayout=stackLayout;horizontal=1;startSize=26;horizontalStack=0;resizeParent=1;resizeLast=0;collapsible=1;marginBottom=0;swimlaneFillColor=#ffffff;rounded=0;shadow=0;comic=0;labelBackgroundColor=none;strokeWidth=1;fillColor=none;fontFamily=Verdana;fontSize=12;" vertex="1" parent="1">
          <mxGeometry x="880" y="220" width="160" height="94" as="geometry" />
        </mxCell>
        <mxCell id="Coziq-dJK1Pich8Sk--5-195" value="" style="childLayout=tableLayout;recursiveResize=0;shadow=0;fillColor=none;rounded=0;" vertex="1" parent="Coziq-dJK1Pich8Sk--5-194">
          <mxGeometry y="26" width="160" height="34" as="geometry" />
        </mxCell>
        <mxCell id="Coziq-dJK1Pich8Sk--5-196" style="edgeStyle=orthogonalEdgeStyle;rounded=0;orthogonalLoop=1;jettySize=auto;html=1;exitX=0.5;exitY=0;exitDx=0;exitDy=0;" edge="1" parent="Coziq-dJK1Pich8Sk--5-195" target="Coziq-dJK1Pich8Sk--5-197">
          <mxGeometry relative="1" as="geometry" />
        </mxCell>
        <mxCell id="Coziq-dJK1Pich8Sk--5-197" value="" style="shape=tableRow;horizontal=0;startSize=0;swimlaneHead=0;swimlaneBody=0;top=0;left=0;bottom=0;right=0;dropTarget=0;collapsible=0;recursiveResize=0;expand=0;fontStyle=0;fillColor=none;strokeColor=inherit;rounded=0;" vertex="1" parent="Coziq-dJK1Pich8Sk--5-195">
          <mxGeometry width="160" height="34" as="geometry" />
        </mxCell>
        <mxCell id="Coziq-dJK1Pich8Sk--5-198" value="id" style="connectable=0;recursiveResize=0;strokeColor=inherit;fillColor=none;align=center;whiteSpace=wrap;html=1;rounded=0;" vertex="1" parent="Coziq-dJK1Pich8Sk--5-197">
          <mxGeometry width="80" height="34" as="geometry">
            <mxRectangle width="80" height="34" as="alternateBounds" />
          </mxGeometry>
        </mxCell>
        <mxCell id="Coziq-dJK1Pich8Sk--5-199" value="integer" style="connectable=0;recursiveResize=0;strokeColor=inherit;fillColor=none;align=center;whiteSpace=wrap;html=1;rounded=0;" vertex="1" parent="Coziq-dJK1Pich8Sk--5-197">
          <mxGeometry x="80" width="80" height="34" as="geometry">
            <mxRectangle width="80" height="34" as="alternateBounds" />
          </mxGeometry>
        </mxCell>
        <mxCell id="Coziq-dJK1Pich8Sk--5-200" value="" style="shape=table;html=1;whiteSpace=wrap;startSize=0;container=1;collapsible=0;childLayout=tableLayout;columnLines=0;rowLines=0;rounded=0;" vertex="1" parent="Coziq-dJK1Pich8Sk--5-194">
          <mxGeometry y="60" width="160" height="34" as="geometry" />
        </mxCell>
        <mxCell id="Coziq-dJK1Pich8Sk--5-201" value="" style="shape=tableRow;horizontal=0;startSize=0;swimlaneHead=0;swimlaneBody=0;top=0;left=0;bottom=0;right=0;collapsible=0;dropTarget=0;fillColor=none;points=[[0,0.5],[1,0.5]];portConstraint=eastwest;rounded=0;" vertex="1" parent="Coziq-dJK1Pich8Sk--5-200">
          <mxGeometry width="160" height="34" as="geometry" />
        </mxCell>
        <mxCell id="Coziq-dJK1Pich8Sk--5-202" value="name" style="shape=partialRectangle;html=1;whiteSpace=wrap;connectable=0;fillColor=none;top=0;left=0;bottom=0;right=0;overflow=hidden;fontSize=12;rounded=0;" vertex="1" parent="Coziq-dJK1Pich8Sk--5-201">
          <mxGeometry width="80" height="34" as="geometry">
            <mxRectangle width="80" height="34" as="alternateBounds" />
          </mxGeometry>
        </mxCell>
        <mxCell id="Coziq-dJK1Pich8Sk--5-203" value="varchar(50)" style="shape=partialRectangle;html=1;whiteSpace=wrap;connectable=0;fillColor=none;top=0;left=0;bottom=0;right=0;overflow=hidden;fontSize=12;rounded=0;" vertex="1" parent="Coziq-dJK1Pich8Sk--5-201">
          <mxGeometry x="80" width="80" height="34" as="geometry">
            <mxRectangle width="80" height="34" as="alternateBounds" />
          </mxGeometry>
        </mxCell>
        <mxCell id="Coziq-dJK1Pich8Sk--5-207" value="&lt;font style=&quot;font-size: 11px;&quot;&gt;movies__movie_genres&lt;/font&gt;" style="swimlane;html=1;fontStyle=1;align=center;verticalAlign=top;childLayout=stackLayout;horizontal=1;startSize=26;horizontalStack=0;resizeParent=1;resizeLast=0;collapsible=1;marginBottom=0;swimlaneFillColor=#ffffff;rounded=0;shadow=0;comic=0;labelBackgroundColor=none;strokeWidth=1;fillColor=none;fontFamily=Verdana;fontSize=12;" vertex="1" parent="1">
          <mxGeometry x="880" y="456" width="160" height="128" as="geometry" />
        </mxCell>
        <mxCell id="Coziq-dJK1Pich8Sk--5-208" value="" style="childLayout=tableLayout;recursiveResize=0;shadow=0;fillColor=none;rounded=0;" vertex="1" parent="Coziq-dJK1Pich8Sk--5-207">
          <mxGeometry y="26" width="160" height="34" as="geometry" />
        </mxCell>
        <mxCell id="Coziq-dJK1Pich8Sk--5-209" style="edgeStyle=orthogonalEdgeStyle;rounded=0;orthogonalLoop=1;jettySize=auto;html=1;exitX=0.5;exitY=0;exitDx=0;exitDy=0;" edge="1" parent="Coziq-dJK1Pich8Sk--5-208" target="Coziq-dJK1Pich8Sk--5-210">
          <mxGeometry relative="1" as="geometry" />
        </mxCell>
        <mxCell id="Coziq-dJK1Pich8Sk--5-210" value="" style="shape=tableRow;horizontal=0;startSize=0;swimlaneHead=0;swimlaneBody=0;top=0;left=0;bottom=0;right=0;dropTarget=0;collapsible=0;recursiveResize=0;expand=0;fontStyle=0;fillColor=none;strokeColor=inherit;rounded=0;" vertex="1" parent="Coziq-dJK1Pich8Sk--5-208">
          <mxGeometry width="160" height="34" as="geometry" />
        </mxCell>
        <mxCell id="Coziq-dJK1Pich8Sk--5-211" value="id" style="connectable=0;recursiveResize=0;strokeColor=inherit;fillColor=none;align=center;whiteSpace=wrap;html=1;rounded=0;" vertex="1" parent="Coziq-dJK1Pich8Sk--5-210">
          <mxGeometry width="80" height="34" as="geometry">
            <mxRectangle width="80" height="34" as="alternateBounds" />
          </mxGeometry>
        </mxCell>
        <mxCell id="Coziq-dJK1Pich8Sk--5-212" value="integer" style="connectable=0;recursiveResize=0;strokeColor=inherit;fillColor=none;align=center;whiteSpace=wrap;html=1;rounded=0;" vertex="1" parent="Coziq-dJK1Pich8Sk--5-210">
          <mxGeometry x="80" width="80" height="34" as="geometry">
            <mxRectangle width="80" height="34" as="alternateBounds" />
          </mxGeometry>
        </mxCell>
        <mxCell id="Coziq-dJK1Pich8Sk--5-213" value="" style="shape=table;html=1;whiteSpace=wrap;startSize=0;container=1;collapsible=0;childLayout=tableLayout;columnLines=0;rowLines=0;rounded=0;" vertex="1" parent="Coziq-dJK1Pich8Sk--5-207">
          <mxGeometry y="60" width="160" height="68" as="geometry" />
        </mxCell>
        <mxCell id="Coziq-dJK1Pich8Sk--5-214" value="" style="shape=tableRow;horizontal=0;startSize=0;swimlaneHead=0;swimlaneBody=0;top=0;left=0;bottom=0;right=0;collapsible=0;dropTarget=0;fillColor=none;points=[[0,0.5],[1,0.5]];portConstraint=eastwest;rounded=0;" vertex="1" parent="Coziq-dJK1Pich8Sk--5-213">
          <mxGeometry width="160" height="34" as="geometry" />
        </mxCell>
        <mxCell id="Coziq-dJK1Pich8Sk--5-215" value="movie_id" style="shape=partialRectangle;html=1;whiteSpace=wrap;connectable=0;fillColor=none;top=0;left=0;bottom=0;right=0;overflow=hidden;fontSize=12;rounded=0;" vertex="1" parent="Coziq-dJK1Pich8Sk--5-214">
          <mxGeometry width="80" height="34" as="geometry">
            <mxRectangle width="80" height="34" as="alternateBounds" />
          </mxGeometry>
        </mxCell>
        <mxCell id="Coziq-dJK1Pich8Sk--5-216" value="integer" style="shape=partialRectangle;html=1;whiteSpace=wrap;connectable=0;fillColor=none;top=0;left=0;bottom=0;right=0;overflow=hidden;fontSize=12;rounded=0;" vertex="1" parent="Coziq-dJK1Pich8Sk--5-214">
          <mxGeometry x="80" width="80" height="34" as="geometry">
            <mxRectangle width="80" height="34" as="alternateBounds" />
          </mxGeometry>
        </mxCell>
        <mxCell id="Coziq-dJK1Pich8Sk--5-217" value="" style="shape=tableRow;horizontal=0;startSize=0;swimlaneHead=0;swimlaneBody=0;top=0;left=0;bottom=0;right=0;collapsible=0;dropTarget=0;fillColor=none;points=[[0,0.5],[1,0.5]];portConstraint=eastwest;rounded=0;" vertex="1" parent="Coziq-dJK1Pich8Sk--5-213">
          <mxGeometry y="34" width="160" height="34" as="geometry" />
        </mxCell>
        <mxCell id="Coziq-dJK1Pich8Sk--5-218" value="genre_id" style="shape=partialRectangle;html=1;whiteSpace=wrap;connectable=0;fillColor=none;top=0;left=0;bottom=0;right=0;overflow=hidden;fontSize=12;rounded=0;" vertex="1" parent="Coziq-dJK1Pich8Sk--5-217">
          <mxGeometry width="80" height="34" as="geometry">
            <mxRectangle width="80" height="34" as="alternateBounds" />
          </mxGeometry>
        </mxCell>
        <mxCell id="Coziq-dJK1Pich8Sk--5-219" value="integer" style="shape=partialRectangle;html=1;whiteSpace=wrap;connectable=0;fillColor=none;top=0;left=0;bottom=0;right=0;overflow=hidden;fontSize=12;rounded=0;" vertex="1" parent="Coziq-dJK1Pich8Sk--5-217">
          <mxGeometry x="80" width="80" height="34" as="geometry">
            <mxRectangle width="80" height="34" as="alternateBounds" />
          </mxGeometry>
        </mxCell>
        <mxCell id="Coziq-dJK1Pich8Sk--5-224" value="" style="edgeStyle=entityRelationEdgeStyle;fontSize=12;html=1;endArrow=ERzeroToMany;startArrow=ERmandOne;rounded=0;exitX=1;exitY=0.252;exitDx=0;exitDy=0;exitPerimeter=0;" edge="1" parent="1" source="Coziq-dJK1Pich8Sk--5-185">
          <mxGeometry width="100" height="100" relative="1" as="geometry">
            <mxPoint x="290" y="560" as="sourcePoint" />
            <mxPoint x="360" y="430" as="targetPoint" />
          </mxGeometry>
        </mxCell>
        <mxCell id="Coziq-dJK1Pich8Sk--5-225" value="" style="endArrow=ERmany;html=1;rounded=0;strokeColor=default;exitX=0.5;exitY=0;exitDx=0;exitDy=0;startArrow=ERzeroToMany;startFill=0;endFill=0;entryX=0.5;entryY=0;entryDx=0;entryDy=0;" edge="1" parent="1" target="Coziq-dJK1Pich8Sk--5-73">
          <mxGeometry width="50" height="50" relative="1" as="geometry">
            <mxPoint x="200" y="250" as="sourcePoint" />
            <mxPoint x="160" y="340" as="targetPoint" />
          </mxGeometry>
        </mxCell>
      </root>
    </mxGraphModel>
  </diagram>
</mxfile>
